# xmcd CD database file
#
# Track frame offsets:
#	150
#	17937
#	32567
#
# Disc length: 695 seconds
#
# Revision: 0
# Processed by: cddbd v1.5PL3 Copyright (c) Steve Scherf et al.
# Submitted via: CDex 1.50
#
DISCID=1b02b503
DTITLE=44MAGNUM - LIVE and LARE DISC10
DYEAR=2000
DGENRE=Hard Rock
TTITLE0=Your Heart
TTITLE1=No Standing Still
TTITLE2=Satisfaction
EXTD=YEAR: 2000
EXTT0=
EXTT1=
EXTT2=
PLAYORDER=
